<svg width="12" height="12" viewBox="0 0 12 12" version="1.1" xmlns="http://www.w3.org/2000/svg" xmlns:xlink="http://www.w3.org/1999/xlink">
<g id="Canvas" fill="none">
<g id="Line">
<path d="M -0.0095894 -0.353515C -0.285681 -0.348219 -0.505204 -0.120109 -0.499908 0.155983C -0.494612 0.432074 -0.266502 0.651597 0.0095894 0.646301L -0.0095894 -0.353515ZM 7.99194 0.346708C 8.18342 0.147737 8.17735 -0.168788 7.97838 -0.360269L 4.73596 -3.48064C 4.53699 -3.67212 4.22046 -3.66605 4.02898 -3.46708C 3.8375 -3.26811 3.84357 -2.95158 4.04254 -2.7601L 6.9247 0.0135615L 4.15104 2.89571C 3.95955 3.09469 3.96563 3.41121 4.1646 3.60269C 4.36357 3.79417 4.68009 3.7881 4.87157 3.58913L 7.99194 0.346708ZM 0.0095894 0.646301L 7.64126 0.499908L 7.62208 -0.499908L -0.0095894 -0.353515L 0.0095894 0.646301Z" transform="matrix(0.707107 -0.707107 0.707107 0.707107 3 8.39648)" fill="black"/>
</g>
</g>
</svg>

