<svg width="40" height="40" viewBox="0 0 40 40" fill="none" xmlns="http://www.w3.org/2000/svg">
<path d="M14.4344 32.3766C25.7552 32.3766 31.9472 22.9974 31.9472 14.8638C31.9472 14.5974 31.9472 14.3322 31.9292 14.0682C33.1338 13.1969 34.1736 12.118 35 10.8822C33.8767 11.3799 32.685 11.7064 31.4648 11.8506C32.7497 11.0813 33.7113 9.87149 34.1708 8.44616C32.9626 9.16311 31.6408 9.66838 30.2624 9.94016C29.3344 8.95338 28.107 8.29996 26.7702 8.08102C25.4335 7.86207 24.0618 8.0898 22.8675 8.72898C21.6731 9.36815 20.7228 10.3831 20.1634 11.6168C19.6041 12.8506 19.4669 14.2342 19.7732 15.5538C17.3261 15.4311 14.9322 14.7952 12.7468 13.6873C10.5614 12.5794 8.6334 11.0243 7.088 9.12296C6.30091 10.478 6.05984 12.082 6.41387 13.6085C6.76791 15.135 7.69043 16.4692 8.9936 17.3394C8.01409 17.3103 7.05594 17.0461 6.2 16.569C6.2 16.5942 6.2 16.6206 6.2 16.647C6.20039 18.068 6.69231 19.4452 7.59234 20.5449C8.49236 21.6446 9.74508 22.3992 11.138 22.6806C10.2318 22.9277 9.2811 22.9638 8.3588 22.7862C8.75211 24.0092 9.51784 25.0787 10.5489 25.8451C11.5799 26.6115 12.8247 27.0364 14.1092 27.0606C11.9297 28.7735 9.23727 29.7034 6.4652 29.7006C5.97548 29.6996 5.48624 29.67 5 29.6118C7.81476 31.4181 11.0899 32.3762 14.4344 32.3718" fill="black"/>
</svg>
