<svg width="27" height="26" viewBox="0 0 27 26" version="1.1" xmlns="http://www.w3.org/2000/svg" xmlns:xlink="http://www.w3.org/1999/xlink">
<title>logo-in</title>
<desc>Created using Figma</desc>
<g id="Canvas" transform="translate(-19308 1286)">
<g id="logo-in">
<g id="Vector">
<use xlink:href="#path0_fill" transform="translate(19308 -1286)"/>
</g>
</g>
</g>
<defs>
<path id="path0_fill" d="M 24.05 0L 1.95 0C 0.866667 0 0 0.866667 0 1.87778L 0 24.1222C 0 25.1333 0.866667 26 1.95 26L 24.1222 26C 25.2056 26 26.0722 25.1333 26.0722 24.1222L 26.0722 1.87778C 26 0.866667 25.1333 0 24.05 0ZM 7.72778 22.1722L 3.82778 22.1722L 3.82778 9.75L 7.65556 9.75L 7.65556 22.1722L 7.72778 22.1722ZM 5.77778 8.01667C 4.55 8.01667 3.53889 7.00556 3.53889 5.77778C 3.53889 4.55 4.55 3.61111 5.77778 3.61111C 7.00556 3.61111 8.01667 4.62222 8.01667 5.85C 8.01667 7.07778 7.00556 8.01667 5.77778 8.01667ZM 22.1722 22.1722L 18.3444 22.1722L 18.3444 16.1056C 18.3444 14.6611 18.3444 12.7833 16.3222 12.7833C 14.3 12.7833 14.0111 14.3722 14.0111 15.9611L 14.0111 22.1L 10.1111 22.1L 10.1111 9.75L 13.7944 9.75L 13.7944 11.4111L 13.8667 11.4111C 14.3722 10.4 15.6722 9.38889 17.55 9.38889C 21.45 9.38889 22.1722 11.9889 22.1722 15.3111L 22.1722 22.1722Z"/>
</defs>
</svg>
