<svg width="40" height="40" viewBox="0 0 40 40" fill="none" xmlns="http://www.w3.org/2000/svg">
<path d="M29.1532 29.1538H25.3008V23.1205C25.3008 21.6819 25.2752 19.8299 23.2972 19.8299C21.2908 19.8299 20.9838 21.3973 20.9838 23.0158V29.1534H17.1314V16.7466H20.8297V18.4421H20.8814C21.2515 17.8093 21.7864 17.2887 22.4289 16.9358C23.0715 16.5829 23.7978 16.4108 24.5304 16.438C28.4349 16.438 29.1548 19.0064 29.1548 22.3476L29.1532 29.1538ZM12.7846 15.0507C12.3424 15.0508 11.9102 14.9198 11.5425 14.6742C11.1748 14.4286 10.8882 14.0795 10.7189 13.671C10.5497 13.2625 10.5053 12.813 10.5915 12.3793C10.6777 11.9456 10.8905 11.5472 11.2031 11.2345C11.5157 10.9218 11.914 10.7088 12.3477 10.6224C12.7813 10.5361 13.2308 10.5803 13.6393 10.7494C14.0479 10.9186 14.3971 11.205 14.6428 11.5727C14.8885 11.9403 15.0197 12.3725 15.0198 12.8147C15.0198 13.1083 14.9621 13.399 14.8498 13.6702C14.7375 13.9415 14.5728 14.188 14.3653 14.3956C14.1577 14.6033 13.9113 14.768 13.6401 14.8804C13.3689 14.9928 13.0782 15.0507 12.7846 15.0507V15.0507ZM14.7108 29.1538H10.8544V16.7466H14.7108V29.1538ZM31.0738 7.00177H8.91857C8.41571 6.9961 7.93114 7.1903 7.57139 7.54171C7.21164 7.89312 7.00614 8.37299 7 8.87586V31.1238C7.00593 31.6269 7.21131 32.1071 7.57105 32.4588C7.93079 32.8106 8.41546 33.0052 8.91857 32.9999H31.0738C31.5779 33.0062 32.0639 32.8121 32.4251 32.4604C32.7863 32.1086 32.993 31.6279 33 31.1238V8.87426C32.9928 8.37039 32.7859 7.88997 32.4247 7.53857C32.0636 7.18717 31.5777 6.99352 31.0738 7.00017" fill="black"/>
</svg>
