<svg width="40" height="40" viewBox="0 0 40 40" fill="none" xmlns="http://www.w3.org/2000/svg">
<path fill-rule="evenodd" clip-rule="evenodd" d="M19.9967 9.06959C23.5583 9.06959 23.9763 9.08546 25.384 9.14897C26.6859 9.20718 27.3897 9.42415 27.8607 9.60938C28.4852 9.85281 28.9297 10.1386 29.3954 10.6043C29.8611 11.07 30.1522 11.5145 30.3903 12.139C30.5702 12.61 30.7925 13.3138 30.8507 14.6157C30.9142 16.0233 30.9301 16.4414 30.9301 20.003C30.9301 23.5645 30.9142 23.9826 30.8507 25.3903C30.7925 26.6921 30.5755 27.396 30.3903 27.867C30.1469 28.4914 29.8611 28.936 29.3954 29.4017C28.9297 29.8674 28.4852 30.1584 27.8607 30.3966C27.3897 30.5765 26.6859 30.7988 25.384 30.857C23.9763 30.9205 23.5583 30.9364 19.9967 30.9364C16.4351 30.9364 16.0171 30.9205 14.6094 30.857C13.3075 30.7988 12.6037 30.5818 12.1327 30.3966C11.5082 30.1531 11.0637 29.8674 10.598 29.4017C10.1323 28.936 9.84125 28.4914 9.60311 27.867C9.42318 27.396 9.20091 26.6921 9.1427 25.3903C9.07919 23.9826 9.06332 23.5645 9.06332 20.003C9.06332 16.4414 9.07919 16.0233 9.1427 14.6157C9.20091 13.3138 9.41788 12.61 9.60311 12.139C9.84654 11.5145 10.1323 11.07 10.598 10.6043C11.0637 10.1386 11.5082 9.84752 12.1327 9.60938C12.6037 9.42945 13.3075 9.20718 14.6094 9.14897C16.0171 9.08017 16.4351 9.06959 19.9967 9.06959ZM19.9967 6.66699C16.3769 6.66699 15.9218 6.68287 14.4983 6.74637C13.08 6.80988 12.1115 7.03744 11.2648 7.36554C10.3863 7.70423 9.64544 8.16464 8.90455 8.90553C8.16367 9.64642 7.70855 10.3926 7.36457 11.2658C7.03646 12.1125 6.8089 13.081 6.7454 14.5045C6.68189 15.9228 6.66602 16.3779 6.66602 19.9977C6.66602 23.6174 6.68189 24.0726 6.7454 25.4961C6.8089 26.9144 7.03646 27.8828 7.36457 28.7349C7.70326 29.6133 8.16367 30.3542 8.90455 31.0951C9.64544 31.836 10.3916 32.2911 11.2648 32.6351C12.1115 32.9632 13.08 33.1908 14.5035 33.2543C15.9271 33.3178 16.3769 33.3337 20.002 33.3337C23.6271 33.3337 24.0769 33.3178 25.5004 33.2543C26.9187 33.1908 27.8872 32.9632 28.7392 32.6351C29.6177 32.2964 30.3585 31.836 31.0994 31.0951C31.8403 30.3542 32.2954 29.6081 32.6394 28.7349C32.9675 27.8881 33.1951 26.9197 33.2586 25.4961C33.3221 24.0726 33.338 23.6227 33.338 19.9977C33.338 16.3726 33.3221 15.9228 33.2586 14.4992C33.1951 13.081 32.9675 12.1125 32.6394 11.2605C32.3007 10.382 31.8403 9.64113 31.0994 8.90024C30.3585 8.15935 29.6124 7.70423 28.7392 7.36025C27.8924 7.03214 26.924 6.80459 25.5004 6.74108C24.0716 6.68287 23.6165 6.66699 19.9967 6.66699ZM19.9968 13.1497C16.2183 13.1497 13.1489 16.2138 13.1489 19.9976C13.1489 23.7814 16.2183 26.8455 19.9968 26.8455C23.7754 26.8455 26.8448 23.7761 26.8448 19.9976C26.8448 16.219 23.7754 13.1497 19.9968 13.1497ZM19.9968 24.4429C17.5413 24.4429 15.5515 22.4531 15.5515 19.9976C15.5515 17.5421 17.5413 15.5523 19.9968 15.5523C22.4524 15.5523 24.4422 17.5421 24.4422 19.9976C24.4422 22.4531 22.4524 24.4429 19.9968 24.4429ZM28.7125 12.8797C28.7125 13.7624 27.997 14.4779 27.1143 14.4779C26.2317 14.4779 25.5161 13.7624 25.5161 12.8797C25.5161 11.997 26.2317 11.2815 27.1143 11.2815C27.997 11.2815 28.7125 11.997 28.7125 12.8797Z" fill="black"/>
</svg>
