<svg width="60" height="23" viewBox="0 0 60 23" version="1.1" xmlns="http://www.w3.org/2000/svg" xmlns:xlink="http://www.w3.org/1999/xlink">
<title>logo-r-ev</title>
<desc>Created using Figma</desc>
<g id="Canvas" transform="translate(-19212 1282)">
<g id="logo-r-ev">
<g id="Vector">
<use xlink:href="#path0_fill" transform="translate(19212 -1281.64)"/>
</g>
<g id="Vector">
<use xlink:href="#path1_fill" transform="translate(19230 -1271.02)"/>
</g>
<g id="Vector">
<use xlink:href="#path2_fill" transform="translate(19236.5 -1282)"/>
</g>
</g>
</g>
<defs>
<path id="path0_fill" d="M 10.8694 0.920408C 11.9694 0.820408 13.4694 0.620408 13.4694 0.620408C 18.3694 -0.979592 18.7694 1.02041 18.7694 1.02041C 17.9694 6.52041 15.5694 11.6204 16.5694 18.0204C 17.6694 19.5204 18.9694 18.4204 21.9694 16.5204C 21.9694 16.5204 24.7694 16.5204 23.5694 18.3204C 22.7694 19.6204 20.3694 21.4204 17.7694 21.5204C 10.1694 21.0204 13.1694 9.22041 14.4694 4.02041C 13.9694 4.02041 13.0694 3.72041 12.8694 3.32041C 9.46938 10.8204 5.76938 20.5204 2.06938 21.7204C -0.730617 20.3204 -0.930617 18.4204 2.96938 15.3204C 6.36938 12.5204 10.8694 0.920408 10.8694 0.920408Z"/>
<path id="path1_fill" d="M 2.904 0C 2.204 0 1.204 0.0999996 0.704001 0.4C -0.0959992 0.8 0.004 1.5 0.004 2.5C 0.904 2.6 4.304 3 4.904 2.3C 5.304 1.9 5.104 0.5 4.804 0.3C 4.504 0.1 2.704 0.1 2.304 0"/>
<path id="path2_fill" d="M 30.563 0.977868C 26.863 6.47787 24.963 12.5779 20.263 17.0779C 19.163 12.1779 21.763 6.77787 20.963 2.17787C 20.263 1.87787 18.563 1.67787 17.963 2.17787C 15.663 6.67787 13.663 12.4779 10.163 15.8779C 9.76298 16.1779 9.56297 16.3779 9.56297 16.3779C 8.56297 17.0779 6.96298 18.0779 5.86298 16.9779C 5.86298 16.9779 5.86298 16.9779 5.86298 16.8779C 7.16298 15.3779 8.36298 13.2779 9.26298 11.3779C 10.863 7.97787 13.863 -0.922131 10.263 0.0778685C 4.46298 1.87787 -3.13702 12.7779 1.36298 18.2779C 1.36298 18.2779 1.86298 18.8779 2.76298 19.5779C 3.96298 20.4779 5.86298 21.3779 8.26298 20.9779C 8.26298 20.9779 9.66298 20.5779 11.063 19.6779C 11.263 19.5779 11.463 19.3779 11.663 19.2779C 12.063 18.8779 12.463 18.5779 12.763 18.0779C 13.863 16.4779 14.563 13.7779 16.163 13.4779C 15.963 18.4779 18.363 22.2779 21.963 21.4779C 24.763 20.7779 25.963 18.1779 27.163 15.3779C 27.163 15.3779 31.763 5.37787 35.363 1.77787C 35.363 -0.222131 32.363 0.677868 30.563 0.977868ZM 8.76298 3.67787C 8.06298 7.37787 5.96298 12.1779 2.56298 14.8779C 3.06298 10.0779 6.56298 7.27787 8.76298 3.67787Z"/>
</defs>
</svg>
