<svg width="34" height="30" viewBox="0 0 34 30" version="1.1" xmlns="http://www.w3.org/2000/svg" xmlns:xlink="http://www.w3.org/1999/xlink">
<title>logo-dnp</title>
<desc>Created using Figma</desc>
<g id="Canvas" transform="translate(-19142 1288)">
<g id="logo-dnp">
<g id="Shape">
<use xlink:href="#path0_fill" transform="translate(19142 -1288)"/>
</g>
</g>
</g>
<defs>
<path id="path0_fill" d="M 33.9352 0.495479C 33.7625 0.0658534 33.3308 -0.105996 32.9854 0.0658537L 26.8546 2.29991C 26.5956 2.38583 26.4229 2.64361 26.5092 2.98731C 26.5956 3.24508 26.8546 3.41693 27.2 3.33101L 29.0133 2.81546C 29.3587 2.64361 29.4451 2.81546 29.3587 2.98731L 24.7822 7.02578C 24.0914 7.62726 23.487 7.71319 22.6235 7.45541C 22.4508 7.36949 22.2781 7.36948 22.1054 7.28356C 21.5873 7.11171 20.9829 7.02578 20.4648 6.93986C 20.2057 6.93986 19.8603 6.85393 19.6013 6.85393C 19.3422 6.85393 18.9968 6.85393 18.7378 6.85393C 18.4787 6.85393 18.1333 6.85393 17.8743 6.93986C 17.6152 6.93986 17.2698 7.02578 17.0108 7.02578C 16.4063 7.11171 15.8883 7.28356 15.3702 7.45541C 15.1111 7.54134 14.8521 7.62726 14.593 7.71319L 13.8159 8.05689C 13.2978 8.31466 12.7797 8.57244 12.3479 8.83021C 12.0889 9.00206 11.8298 9.08799 11.6571 9.25984C 11.3981 9.43169 11.2254 9.51761 10.9663 9.68946C 10.5346 10.0332 10.0165 10.3769 9.67111 10.7206C 9.23936 11.0643 8.80762 11.408 8.37587 11.8376C 7.94413 12.1813 7.59873 12.6109 7.16698 13.0405C 6.82159 13.2124 6.82159 13.4702 6.90794 13.7279C 7.08063 14.2435 7.16698 14.6731 7.42603 15.1887C 7.51238 15.4464 7.59873 15.6183 7.77143 15.8761L 8.11683 16.5635C 8.20317 16.8212 8.37587 16.9931 8.54857 17.2509C 8.63492 17.3368 8.72127 17.5086 8.72127 17.5946L 8.98032 17.9383C 9.15302 18.1101 9.32572 18.3679 9.49841 18.5397C 9.58476 18.6257 9.67111 18.7116 9.75746 18.8834C 10.1892 19.3131 10.621 19.5708 10.1029 20.0864L 7.68508 22.2345C 7.25333 22.6641 6.64889 23.0078 5.9581 23.0078L 2.24508 23.2656C 1.98603 23.2656 1.72698 23.5234 1.72698 23.7812C 1.72698 24.0389 1.98603 24.2967 2.24508 24.2967L 3.54032 24.2967C 3.79937 24.2967 3.71302 24.3827 3.54032 24.4686L 0.777143 24.9841C 0.518095 25.0701 0.345397 25.2419 0.345397 25.4997C 0.345397 25.7575 0.604444 25.9293 0.863492 25.9293L 3.45397 25.6715C 3.62667 25.6715 3.79936 25.6715 3.62667 25.8434L 3.19492 26.1871C 2.93587 26.4449 2.50413 26.7026 1.98603 26.9604L 0.259048 27.476C 0.0863492 27.5619 0 27.7337 0 27.9915C 0.0863492 28.2493 0.259048 28.3352 0.518095 28.2493C 0.604444 28.2493 0.690794 28.2493 0.604444 28.3352C 0.431746 28.593 0.431746 28.9367 0.690794 29.1945C 0.949841 29.4522 1.38159 29.5382 1.72698 29.2804L 4.05841 27.2182C 4.40381 26.9604 4.66286 26.9604 4.66286 27.2182L 4.40381 28.4211C 4.40381 28.593 4.49016 28.8508 4.66286 28.9367C 4.74921 28.9367 4.74921 29.0226 4.74921 29.1085L 4.66286 29.3663C 4.57651 29.6241 4.66286 29.8819 4.9219 29.9678C 5.18095 30.0537 5.44 29.9678 5.52635 29.71L 7.33968 25.2419C 7.68508 24.2967 8.28952 23.4375 8.89397 22.9219L 10.88 21.2034C 11.3117 20.8597 11.7435 20.4301 12.6933 20.7738C 12.866 20.8597 13.0387 20.9456 13.2978 20.9456C 13.5568 21.0316 13.8159 21.1175 14.0749 21.1175C 14.593 21.2034 15.1111 21.2893 15.6292 21.3753C 16.1473 21.3753 16.6654 21.3753 17.1835 21.3753C 17.7016 21.2893 18.2197 21.2893 18.7378 21.1175C 19.2559 21.0316 19.6876 20.8597 20.2057 20.7738C 20.4648 20.6879 20.7238 20.6019 20.8965 20.516C 21.1556 20.4301 21.3283 20.3442 21.5873 20.2582C 21.8463 20.1723 22.019 20.0864 22.2781 19.9145C 22.5371 19.8286 22.7098 19.6568 22.9689 19.5708C 23.4006 19.3131 23.8324 19.0553 24.2641 18.7975C 24.6959 18.5397 25.0413 18.196 25.473 17.8523C 25.8184 17.5086 26.2502 17.1649 26.5956 16.8212C 26.7683 16.6494 26.7683 16.4775 26.5956 16.3057C 26.4229 16.1338 26.1638 16.1338 25.9911 16.2198C 25.6457 16.4775 25.3003 16.8212 24.8686 17.079C 24.6959 17.2509 24.4368 17.3368 24.2641 17.4227L 23.6597 17.7664C 23.2279 18.0242 22.7962 18.196 22.4508 18.3679C 22.2781 18.4538 22.019 18.5397 21.8463 18.6257C 21.6737 18.7116 21.4146 18.7975 21.1556 18.8834C 20.7238 19.0553 20.2921 19.1412 19.8603 19.3131C 19.4286 19.399 18.9968 19.5708 18.4787 19.5708C 17.6152 19.7427 16.6654 19.7427 15.8019 19.6568C 15.3702 19.6568 14.9384 19.5708 14.5067 19.4849C 14.334 19.399 14.0749 19.399 13.9022 19.3131C 13.7295 19.2271 13.4705 19.1412 13.2978 19.0553C 13.1251 18.9694 12.9524 18.8834 12.6933 18.7975C 12.5206 18.7116 12.3479 18.5397 12.1752 18.4538C 12.0025 18.3679 11.8298 18.196 11.6571 18.1101C 11.4844 18.0242 11.3117 17.8523 11.139 17.6805C 10.9663 17.5086 10.7937 17.3368 10.7073 17.2509C 10.5346 17.079 10.4483 16.9072 10.2756 16.7353L 10.1029 16.4775C 10.0165 16.3916 10.0165 16.3057 9.93016 16.2198C 9.84381 16.0479 9.67111 15.8761 9.58476 15.6183L 9.23937 15.0168C 9.15302 14.9309 9.15302 14.845 9.06667 14.759C 8.54857 13.642 9.32572 12.8687 10.0165 12.1813C 10.1892 12.0094 10.3619 11.9235 10.5346 11.7517C 10.9663 11.408 11.3981 11.1502 11.7435 10.8065C 11.9162 10.6346 12.1752 10.5487 12.3479 10.3769C 12.5206 10.205 12.7797 10.1191 13.0387 9.94724C 13.4705 9.68946 13.9886 9.43169 14.4203 9.25984L 15.1111 9.00206C 15.3702 8.91614 15.6292 8.83021 15.8019 8.74429C 16.32 8.57244 16.7517 8.48651 17.2698 8.40059C 17.5289 8.31466 17.7879 8.31466 18.047 8.31466C 18.306 8.31466 18.5651 8.22873 18.8241 8.22873C 19.0832 8.22873 19.3422 8.22873 19.6013 8.22873C 19.8603 8.22873 20.1194 8.22873 20.3784 8.22873C 20.8965 8.22873 21.4146 8.31466 21.8463 8.48651C 22.1917 8.57244 22.6235 8.91613 22.2781 9.17391L 20.5511 10.7206C 20.2921 10.9783 20.033 11.0643 19.6013 10.8924C 18.9968 10.6346 18.3924 10.6346 17.7016 10.6346C 17.4425 10.6346 17.2698 10.7206 17.1835 10.8924C 15.4565 10.9783 13.9886 12.6968 13.8159 14.5872C 13.7295 16.2198 14.593 17.4227 16.1473 17.6805C 17.4425 17.9383 18.9105 17.8523 19.8603 16.8212C 20.6375 15.962 20.9829 14.5872 20.8965 13.2983C 20.8965 12.6968 21.1556 12.0954 21.4146 11.9235L 23.746 9.86131C 24.0914 9.60354 24.4368 9.51761 24.8686 9.77539C 25.214 9.94724 25.5594 10.205 25.9048 10.4628C 26.3365 10.8065 26.6819 11.0643 27.1137 11.4939C 27.459 11.8376 27.8044 12.2672 28.1498 12.6109C 28.4952 13.0405 28.7543 13.3842 29.0133 13.8998C 29.0997 14.0716 29.3587 14.1576 29.5314 14.0716C 29.7041 13.9857 29.7905 13.7279 29.7041 13.5561C 29.4451 13.1265 29.186 12.6109 28.8406 12.0954C 28.4952 11.6657 28.1498 11.2361 27.8044 10.8065C 27.459 10.3769 27.0273 10.0332 26.5956 9.68946C 26.3365 9.51761 26.1638 9.34576 25.9048 9.17391C 25.3867 8.74428 25.6457 8.31466 25.9911 8.05689L 30.9994 3.67471C 31.3448 3.41693 31.3448 3.50286 31.3448 3.76063L 30.3949 6.33838C 30.2222 6.76801 30.4813 7.19763 30.8267 7.36948C 31.2584 7.54133 31.6902 7.28356 31.8629 6.93986L 33.9352 1.18288C 34.0216 0.839179 34.0216 0.667329 33.9352 0.495479Z"/>
</defs>
</svg>
